# xmcd
#
# Track frame offsets:
# 183
# 10833
# 24558
# 39108
# 49833
# 61158
# 74583
# 87408
# 103533
# 113283
# 127083
# 141558
# 151908
# 163083
#
# Disc length: 2314 seconds
#
#
# Revision: 0
# Processed by: cddbd v1.5.2PL0 Copyright (c) Steve Scherf et al.
# Submitted via: FreeRIP 2.96 
#
DISCID=b609080e
DTITLE=Cat Stevens - Early Tapes
DYEAR=1993
DGENRE=Pop
TTITLE0=I Love My Dog
TTITLE1=The First Cut Is The Deepest
TTITLE2=A Bad Night
TTITLE3=I'm So Sleepy
TTITLE4=Blackness
TTITLE5=School Is Out
TTITLE6=Northern Wind
TTITLE7=The View From The Top
TTITLE8=Come On And Dance
TTITLE9=Where Are You
TTITLE10=Granny
TTITLE11=Moonstone
TTITLE12=Ceylon City
TTITLE13=Kitty
EXTD=
EXTT0=
EXTT1=
EXTT2=
EXTT3=
EXTT4=
EXTT5=
EXTT6=
EXTT7=
EXTT8=
EXTT9=
EXTT10=
EXTT11=
EXTT12=
EXTT13=
PLAYORDER=
